<?xml version="1.0" encoding="utf-8"?>
<svg role="img" viewBox="0 0 24 24" xmlns="http://www.w3.org/2000/svg">
	<title>Await</title>
	<circle cx="12" cy="12" r="12" fill="#7858F5"></circle>
	<path d="M12 0c5.523 0 10 4.477 10 10v9a3.125 3.125 0 0 1-4.694 2.703A3.126 3.126 0 0 1 12 23a3.126 3.126 0 0 1-5.306-1.297A3.125 3.125 0 0 1 2 19v-9C2 4.477 6.477 0 12 0m-1.25 10.625a.625.625 0 0 0-.625.625 1.875 1.875 0 0 0 3.75 0 .625.625 0 0 0-.625-.625zm-1.875-5c-.69 0-1.25.56-1.25 1.25v1.25a1.25 1.25 0 0 0 2.5 0v-1.25c0-.69-.56-1.25-1.25-1.25m6.25 0c-.69 0-1.25.56-1.25 1.25v1.25a1.25 1.25 0 0 0 2.5 0v-1.25c0-.69-.56-1.25-1.25-1.25" transform="translate(4.8, 4.8) scale(0.6)" fill="white"></path>
</svg>