<?xml version="1.0" encoding="utf-8"?>
<svg role="img" viewBox="0 0 24 24" xmlns="http://www.w3.org/2000/svg">
	<title>Just</title>
	<circle cx="12" cy="12" r="12" fill="#000000"></circle>
	<path d="M12 0A12 12 0 0 0 0 12a12 12 0 0 0 12 12 12 12 0 0 0 12-12A12 12 0 0 0 12 0m0 2.35a3.25 3.35 0 0 1 3.25 3.35A3.25 3.35 0 0 1 12 9.05 3.25 3.35 0 0 1 8.75 5.7 3.25 3.35 0 0 1 12 2.35m0 12.6a3.25 3.35 0 0 1 3.25 3.35A3.25 3.35 0 0 1 12 21.65a3.25 3.35 0 0 1-3.25-3.35A3.25 3.35 0 0 1 12 14.95" transform="translate(4.8, 4.8) scale(0.6)" fill="white"></path>
</svg>